<?xml version="1.0" standalone="no"?>
<!DOCTYPE svg PUBLIC "-//W3C//DTD SVG 20010904//EN"
 "http://www.w3.org/TR/2001/REC-SVG-20010904/DTD/svg10.dtd">
<svg version="1.0" xmlns="http://www.w3.org/2000/svg"
 width="977.000000pt" height="977.000000pt" viewBox="0 0 977.000000 977.000000"
 preserveAspectRatio="xMidYMid meet">

<g transform="translate(0.000000,977.000000) scale(0.100000,-0.100000)"
fill="#000000" stroke="none">
<path d="M4670 9763 c-348 -16 -729 -75 -1057 -164 -828 -225 -1590 -669
-2192 -1278 -836 -847 -1318 -1903 -1412 -3091 -13 -171 -7 -595 11 -790 129
-1368 815 -2609 1901 -3442 630 -483 1383 -811 2149 -937 326 -53 366 -56 820
-56 454 0 500 3 840 61 708 120 1414 420 2025 858 275 197 671 567 886 828
610 739 972 1568 1101 2523 21 154 23 207 23 575 -1 441 -8 539 -65 875 -216
1268 -945 2414 -2013 3164 -370 261 -832 490 -1284 640 -530 175 -1159 260
-1733 234z m490 -303 c1443 -87 2747 -842 3557 -2060 346 -519 590 -1136 692
-1750 145 -868 55 -1697 -271 -2504 -335 -831 -945 -1576 -1703 -2083 -634
-423 -1349 -677 -2130 -755 -169 -16 -671 -16 -840 0 -393 40 -791 129 -1131
252 -814 298 -1500 791 -2042 1469 -117 145 -317 445 -413 616 -282 506 -468
1074 -544 1666 -39 309 -44 805 -10 1084 174 1446 973 2680 2219 3429 169 102
470 250 659 325 625 245 1291 351 1957 311z"/>
<path d="M3616 6729 c-84 -20 -128 -76 -147 -184 -27 -160 -93 -289 -208 -408
-350 -363 -954 -267 -1185 189 -31 62 -48 114 -80 246 -3 15 -20 44 -38 63
-56 64 -136 82 -213 46 -104 -48 -127 -131 -84 -302 82 -326 317 -603 628
-740 301 -133 630 -127 927 16 305 147 517 406 600 732 31 123 31 196 1 254
-37 70 -121 107 -201 88z"/>
<path d="M8015 6735 c-5 -2 -22 -6 -37 -9 -34 -8 -84 -50 -103 -87 -9 -16 -22
-61 -29 -101 -48 -250 -190 -439 -414 -552 -181 -92 -452 -92 -634 0 -208 104
-356 292 -408 519 -24 103 -53 148 -114 176 -75 34 -156 18 -211 -42 -46 -52
-59 -102 -45 -181 64 -352 299 -656 624 -809 547 -256 1197 -28 1468 516 58
115 108 295 108 383 -1 80 -62 160 -138 182 -38 10 -49 11 -67 5z"/>
<path d="M4625 4868 c-140 -12 -422 -70 -551 -114 -576 -194 -1084 -584 -1419
-1089 -260 -392 -412 -835 -428 -1253 l-3 -92 2663 0 2663 0 0 65 c0 336 -136
798 -336 1142 -349 601 -911 1047 -1559 1238 -334 99 -685 134 -1030 103z"/>
</g>
</svg>
