<?xml version="1.0" standalone="no"?>
<svg version="1.0" xmlns="http://www.w3.org/2000/svg"
 width="970.000000pt" height="977.000000pt" viewBox="0 0 970.000000 977.000000"
 preserveAspectRatio="xMidYMid meet">

<g transform="translate(0.000000,977.000000) scale(0.100000,-0.100000)"
fill="#000000" stroke="none">
<path d="M4420 9763 c-165 -15 -496 -71 -722 -122 -331 -75 -798 -258 -1143
-447 -534 -292 -977 -652 -1379 -1119 -599 -697 -976 -1514 -1120 -2425 -44
-281 -56 -435 -56 -709 1 -754 122 -1338 423 -2043 271 -632 739 -1259 1302
-1743 208 -179 538 -407 793 -549 391 -218 853 -394 1287 -491 357 -80 612
-105 1045 -105 430 1 668 24 1025 101 514 112 1060 333 1523 618 120 73 366
246 442 310 409 343 707 652 931 966 319 445 524 845 691 1350 98 294 171 611
218 940 17 117 25 961 11 1099 -39 375 -133 793 -257 1141 -40 113 -54 149
-133 336 -86 205 -264 529 -400 729 -261 385 -495 658 -791 924 -481 432 -942
716 -1545 951 -312 121 -588 194 -1000 262 -155 25 -174 26 -630 28 -258 1
-490 1 -515 -2z m-699 -3050 c16 -10 41 -35 56 -56 24 -35 27 -47 26 -120 -1
-126 -76 -333 -180 -494 -117 -184 -356 -357 -598 -435 -523 -167 -1116 125
-1323 652 -65 167 -79 308 -36 368 26 35 99 72 144 72 54 -1 115 -33 143 -77
14 -21 33 -72 43 -113 20 -84 70 -201 113 -263 41 -60 138 -158 191 -194 119
-81 281 -133 414 -133 105 0 243 33 336 81 111 57 245 180 287 263 8 17 22 38
29 47 20 23 68 161 89 252 27 124 92 182 193 172 24 -3 57 -13 73 -22z m4334
4 c103 -58 121 -160 61 -354 -115 -377 -380 -644 -747 -753 -447 -132 -905 26
-1191 411 -75 101 -148 259 -178 387 -26 108 -25 142 4 200 32 63 74 87 151
87 83 0 118 -23 154 -100 16 -33 34 -85 41 -115 45 -198 203 -389 408 -494 59
-30 226 -66 309 -66 102 0 251 38 345 87 52 26 100 64 164 128 130 128 162
193 239 476 11 43 23 63 49 83 68 52 127 59 191 23z m-2954 -1847 c360 -37
774 -166 1042 -326 329 -198 529 -366 752 -636 271 -327 439 -668 539 -1097
30 -129 56 -329 56 -437 l0 -34 -2636 0 -2637 0 6 123 c10 207 78 504 162 712
175 428 432 786 772 1074 100 85 231 182 289 215 16 10 54 32 84 51 79 50 280
150 384 192 202 81 475 147 691 166 92 8 401 6 496 -3z"/>
</g>
</svg>
