<?xml version="1.0" standalone="no"?>
<svg version="1.0" xmlns="http://www.w3.org/2000/svg"
 width="975.000000pt" height="977.000000pt" viewBox="0 0 975.000000 977.000000"
 preserveAspectRatio="xMidYMid meet">

<g transform="translate(0.000000,977.000000) scale(0.100000,-0.100000)"
fill="#000000" stroke="none">
<path d="M4670 9763 c-348 -16 -729 -75 -1057 -164 -828 -225 -1590 -669
-2192 -1278 -836 -847 -1318 -1903 -1412 -3091 -13 -171 -7 -595 11 -790 129
-1368 815 -2609 1901 -3442 630 -483 1383 -811 2149 -937 326 -53 366 -56 820
-56 454 0 500 3 840 61 708 120 1414 420 2025 858 275 197 671 567 886 828
592 717 964 1551 1088 2440 19 134 21 197 21 667 0 407 -3 546 -15 638 -111
856 -426 1634 -940 2318 -607 808 -1424 1394 -2392 1714 -530 175 -1159 260
-1733 234z m490 -303 c1443 -87 2747 -842 3557 -2060 346 -519 590 -1136 692
-1750 145 -868 55 -1697 -271 -2504 -335 -831 -945 -1576 -1703 -2083 -634
-423 -1349 -677 -2130 -755 -169 -16 -671 -16 -840 0 -393 40 -791 129 -1131
252 -814 298 -1500 791 -2042 1469 -117 145 -317 445 -413 616 -282 506 -468
1074 -544 1666 -39 309 -44 805 -10 1084 174 1446 973 2680 2219 3429 169 102
470 250 659 325 625 245 1291 351 1957 311z"/>
<path d="M2615 7430 c-165 -18 -327 -85 -460 -190 -166 -133 -278 -316 -321
-529 -24 -122 -16 -304 21 -426 70 -239 236 -436 460 -548 148 -74 321 -105
490 -87 121 13 194 33 294 81 233 111 404 309 477 554 35 121 44 304 20 425
-94 460 -516 770 -981 720z"/>
<path d="M7065 7430 c-359 -40 -655 -286 -761 -635 -26 -83 -28 -103 -28 -255
0 -151 2 -172 27 -253 48 -156 128 -288 237 -391 156 -146 323 -224 527 -245
178 -18 336 9 490 84 239 117 407 323 479 584 21 78 29 270 15 359 -22 142
-98 311 -192 430 -62 78 -189 179 -292 233 -137 71 -338 107 -502 89z"/>
<path d="M4671 4729 c-660 -42 -1272 -277 -1792 -690 -134 -106 -392 -365
-499 -499 -264 -333 -488 -775 -575 -1133 -27 -109 -26 -141 7 -195 58 -95
228 -95 286 0 11 18 32 77 46 130 110 419 366 859 693 1192 488 496 1095 784
1783 846 703 63 1419 -151 1989 -593 134 -104 353 -321 459 -455 231 -291 387
-589 503 -961 61 -197 91 -231 202 -231 96 0 167 70 167 164 0 125 -160 548
-303 803 -456 810 -1227 1376 -2129 1562 -177 36 -269 48 -473 61 -174 11
-181 11 -364 -1z"/>
</g>
</svg>
