<?xml version="1.0" standalone="no"?>
<svg version="1.0" xmlns="http://www.w3.org/2000/svg"
 width="970.000000pt" height="977.000000pt" viewBox="0 0 970.000000 977.000000"
 preserveAspectRatio="xMidYMid meet">

<g transform="translate(0.000000,977.000000) scale(0.100000,-0.100000)"
fill="#000000" stroke="none">
<path d="M4245 9754 c-49 -8 -155 -26 -235 -40 -932 -165 -1817 -626 -2503
-1303 -419 -413 -730 -836 -974 -1324 -81 -162 -108 -223 -195 -442 -171 -428
-294 -1000 -318 -1476 -24 -458 19 -980 111 -1383 157 -680 445 -1314 839
-1846 221 -299 403 -501 660 -734 672 -609 1456 -1006 2319 -1176 l154 -30
757 0 757 0 139 26 c687 127 1385 433 1969 864 303 224 725 634 936 910 152
198 176 232 259 360 311 484 536 997 665 1520 32 133 47 203 93 465 20 114 30
1101 13 1285 -38 411 -188 986 -361 1385 -78 179 -222 462 -312 612 -84 140
-126 201 -306 445 -294 398 -733 814 -1172 1110 -246 166 -605 356 -898 475
-319 129 -651 218 -1062 285 -113 19 -177 21 -685 24 -446 2 -578 -1 -650 -12z
m-1296 -2358 c51 -15 121 -41 155 -58 162 -82 314 -234 395 -397 146 -291 114
-687 -76 -934 -116 -151 -219 -230 -394 -302 -105 -44 -209 -59 -367 -53 -110
4 -140 9 -222 38 -295 101 -495 316 -576 620 -61 232 -25 492 97 697 45 74
176 212 248 262 170 115 324 162 521 157 100 -2 144 -8 219 -30z m4421 -4 c58
-16 123 -40 145 -52 238 -138 355 -276 449 -530 31 -84 31 -87 31 -275 0 -180
-1 -194 -27 -266 -103 -294 -295 -489 -573 -579 -177 -58 -414 -53 -580 10
-257 100 -471 337 -541 602 -23 88 -23 377 0 464 35 134 115 278 210 381 111
121 245 203 402 247 125 35 126 35 259 31 92 -4 145 -11 225 -33z m-2196
-2698 c98 -8 182 -16 185 -18 3 -2 53 -14 111 -26 123 -25 304 -74 375 -101
250 -93 421 -174 605 -282 399 -235 771 -600 1039 -1021 72 -113 181 -316 215
-402 13 -33 41 -99 61 -149 106 -257 143 -442 99 -502 -54 -72 -151 -96 -221
-53 -43 26 -62 66 -129 270 -170 520 -436 921 -869 1305 -189 168 -438 322
-720 446 -125 55 -376 132 -535 164 -375 76 -717 74 -1115 -5 -154 -31 -449
-121 -490 -150 -5 -4 -37 -17 -70 -30 -33 -14 -95 -44 -138 -67 -42 -24 -81
-43 -86 -43 -9 0 -132 -78 -241 -153 -205 -141 -532 -460 -660 -643 -26 -37
-106 -157 -145 -218 -55 -85 -189 -356 -225 -456 -17 -47 -44 -128 -60 -180
-38 -128 -61 -192 -73 -208 -20 -25 -86 -52 -130 -52 -30 0 -56 8 -88 29 -84
53 -86 131 -11 366 51 160 102 283 181 441 156 310 292 507 514 744 218 234
353 349 592 505 259 169 518 290 820 380 44 13 95 28 114 34 80 24 357 70 486
81 256 20 299 19 609 -6z"/>
</g>
</svg>
