<?xml version="1.0" standalone="no"?>
<svg version="1.0" xmlns="http://www.w3.org/2000/svg"
 width="979.000000pt" height="979.000000pt" viewBox="0 0 979.000000 979.000000"
 preserveAspectRatio="xMidYMid meet">

<g transform="translate(0.000000,979.000000) scale(0.100000,-0.100000)"
fill="#000000" stroke="none">
<path d="M4670 9783 c-348 -16 -729 -75 -1057 -164 -828 -225 -1590 -669
-2192 -1278 -836 -847 -1318 -1903 -1412 -3091 -13 -171 -7 -595 11 -790 129
-1368 815 -2609 1901 -3442 915 -701 2060 -1059 3195 -999 245 13 372 27 609
66 709 120 1417 419 2030 859 275 197 671 567 886 828 535 648 885 1378 1043
2178 117 586 122 1174 16 1795 -216 1268 -945 2414 -2013 3164 -370 261 -832
490 -1284 640 -530 175 -1159 260 -1733 234z m490 -303 c1443 -87 2747 -842
3557 -2060 346 -519 590 -1136 692 -1750 145 -868 55 -1697 -271 -2504 -335
-831 -945 -1576 -1703 -2083 -634 -423 -1349 -677 -2130 -755 -169 -16 -671
-16 -840 0 -393 40 -791 129 -1131 252 -814 298 -1500 791 -2042 1469 -117
145 -317 445 -413 616 -282 506 -468 1074 -544 1666 -39 309 -44 805 -10 1084
174 1446 973 2680 2219 3429 169 102 470 250 659 325 625 245 1291 351 1957
311z"/>
<path d="M2615 7450 c-165 -18 -327 -85 -460 -190 -166 -133 -278 -316 -321
-529 -24 -122 -16 -304 21 -426 70 -239 236 -436 460 -548 148 -74 321 -105
490 -87 121 13 194 33 294 81 233 111 404 309 477 554 35 121 44 304 20 425
-94 460 -516 770 -981 720z"/>
<path d="M7065 7450 c-359 -40 -655 -286 -761 -635 -26 -83 -28 -103 -28 -255
0 -151 2 -172 27 -253 48 -156 128 -288 237 -391 156 -146 323 -224 527 -245
178 -18 336 9 490 84 239 117 407 323 479 584 21 78 29 270 15 359 -22 142
-98 311 -192 430 -62 78 -189 179 -292 233 -137 71 -338 107 -502 89z"/>
<path d="M2720 3450 l0 -100 2220 0 2220 0 0 100 0 100 -2220 0 -2220 0 0
-100z"/>
</g>
</svg>
