<?xml version="1.0" encoding="UTF-8"?>

<svg version="1.0" xmlns="http://www.w3.org/2000/svg"
 width="977.000000pt" height="977.000000pt" viewBox="0 0 977.000000 977.000000"
 preserveAspectRatio="xMidYMid meet">
<g transform="translate(977.000000, 0.000000) scale(1.00000,-1.00000) rotate(180)"
fill="#000000" stroke="none">

<path  d="M 445.5,-0.5 C 472.5,-0.5 499.5,-0.5 526.5,-0.5C 528.019,0.409824 529.685,1.24316 531.5,2C 537.827,2.65098 544.16,3.15098 550.5,3.5C 550.833,3.5 551.167,3.5 551.5,3.5C 556.269,4.88899 561.269,5.55565 566.5,5.5C 570.418,6.44157 574.418,7.10823 578.5,7.5C 578.611,8.11742 578.944,8.61742 579.5,9C 584.827,9.94349 590.16,10.7768 595.5,11.5C 603.236,13.5098 610.903,15.5098 618.5,17.5C 618.611,18.1174 618.944,18.6174 619.5,19C 623.447,20.154 627.447,20.9873 631.5,21.5C 634.619,22.8699 637.952,23.8699 641.5,24.5C 644.053,26.5837 647.053,27.917 650.5,28.5C 653.421,29.696 656.421,30.696 659.5,31.5C 661.033,33.2451 663.033,34.2451 665.5,34.5C 771.548,78.8993 852.215,151.233 907.5,251.5C 907.427,253.027 908.094,254.027 909.5,254.5C 915.576,264.99 920.91,275.99 925.5,287.5C 926.399,291.624 928.066,295.291 930.5,298.5C 931.363,300.421 932.029,302.421 932.5,304.5C 932.755,306.967 933.755,308.967 935.5,310.5C 936.901,313.704 937.901,317.037 938.5,320.5C 939.083,323.947 940.416,326.947 942.5,329.5C 944.619,339.048 947.286,348.382 950.5,357.5C 951.232,362.441 952.565,367.107 954.5,371.5C 956.202,379.074 957.535,386.741 958.5,394.5C 958.99,400.809 960.323,406.809 962.5,412.5C 963.783,423.86 965.117,435.194 966.5,446.5C 966.5,471.167 966.5,495.833 966.5,520.5C 965.613,529.138 964.946,537.804 964.5,546.5C 963.899,552.842 963.232,559.176 962.5,565.5C 961.883,565.611 961.383,565.944 961,566.5C 960.505,568.473 960.338,570.473 960.5,572.5C 960.5,573.833 960.5,575.167 960.5,576.5C 958.763,580.542 957.763,584.876 957.5,589.5C 956.454,592.728 955.788,596.061 955.5,599.5C 954.076,601.515 953.41,603.848 953.5,606.5C 951.763,612.051 950.429,617.718 949.5,623.5C 947.589,627.233 946.256,631.233 945.5,635.5C 943.459,643.622 940.793,651.622 937.5,659.5C 935.416,662.053 934.083,665.053 933.5,668.5C 931.969,672.426 930.636,676.426 929.5,680.5C 927.088,683.368 925.421,686.701 924.5,690.5C 923.89,691.391 923.557,692.391 923.5,693.5C 921.341,696.484 919.675,699.817 918.5,703.5C 899.256,741.922 875.756,777.589 848,810.5C 837.801,820.994 827.634,831.327 817.5,841.5C 814.167,844.167 811.167,847.167 808.5,850.5C 796.666,860.831 784.666,870.998 772.5,881C 756.197,892.484 739.531,903.317 722.5,913.5C 720.326,913.75 718.659,914.75 717.5,916.5C 708.918,920.43 700.585,924.763 692.5,929.5C 687.707,930.733 683.374,932.733 679.5,935.5C 678.391,935.557 677.391,935.89 676.5,936.5C 672.376,937.399 668.709,939.066 665.5,941.5C 665.167,941.5 664.833,941.5 664.5,941.5C 660.299,942.223 656.632,943.89 653.5,946.5C 652.041,946.433 650.708,946.766 649.5,947.5C 644.992,948.433 640.992,950.099 637.5,952.5C 626.849,955.488 616.183,958.488 605.5,961.5C 601.838,961.723 598.505,962.723 595.5,964.5C 591.803,965.008 588.136,965.674 584.5,966.5C 580.454,966.952 576.454,967.619 572.5,968.5C 568.159,968.658 564.159,969.658 560.5,971.5C 557.455,971.508 554.455,971.841 551.5,972.5C 542.942,972.786 534.609,973.786 526.5,975.5C 522.958,975.187 519.625,975.521 516.5,976.5C 493.833,976.5 471.167,976.5 448.5,976.5C 447.391,975.71 446.058,975.21 444.5,975C 439.177,974.501 433.844,974.334 428.5,974.5C 427.833,974.5 427.167,974.5 426.5,974.5C 421.394,972.956 416.061,971.956 410.5,971.5C 403.752,971.017 397.086,970.017 390.5,968.5C 388.485,967.076 386.152,966.41 383.5,966.5C 378.445,965.622 373.445,964.622 368.5,963.5C 366.485,962.076 364.152,961.41 361.5,961.5C 351.9,958.3 342.234,955.3 332.5,952.5C 330.064,951.129 327.397,950.129 324.5,949.5C 321.032,948.899 317.699,947.899 314.5,946.5C 312.967,944.755 310.967,943.755 308.5,943.5C 304.647,942.55 300.98,941.217 297.5,939.5C 295.967,937.755 293.967,936.755 291.5,936.5C 289.833,935.833 288.167,935.167 286.5,934.5C 284.967,932.755 282.967,931.755 280.5,931.5C 274.42,928.46 268.42,925.46 262.5,922.5C 260.434,920.801 258.1,919.468 255.5,918.5C 211.18,894.823 171.847,864.823 137.5,828.5C 136.167,826.5 134.5,824.833 132.5,823.5C 97.8865,785.244 69.5532,742.911 47.5,696.5C 47.2451,694.033 46.2451,692.033 44.5,690.5C 44.2041,688.597 43.5375,686.93 42.5,685.5C 41.917,682.053 40.5837,679.053 38.5,676.5C 37.696,673.421 36.696,670.421 35.5,667.5C 35.2451,665.033 34.2451,663.033 32.5,661.5C 31.4925,658.156 30.4925,654.823 29.5,651.5C 29.0652,648.843 28.0652,646.509 26.5,644.5C 20.76,626.429 15.76,608.095 11.5,589.5C 10.3815,581.17 9.21483,572.837 8,564.5C 7.61742,563.944 7.11742,563.611 6.5,563.5C 6.09552,557.453 5.42885,551.453 4.5,545.5C 4.41355,541.143 4.08021,536.81 3.5,532.5C 2.60063,504.512 2.26729,476.512 2.5,448.5C 3.24362,444.881 3.57695,441.215 3.5,437.5C 4.10578,426.939 5.43912,416.605 7.5,406.5C 9.0217,401.727 10.0217,396.727 10.5,391.5C 12.5823,376.733 15.9156,362.4 20.5,348.5C 22.117,345.811 23.117,342.811 23.5,339.5C 24.1301,335.952 25.1301,332.619 26.5,329.5C 27.871,327.064 28.871,324.397 29.5,321.5C 30.9009,318.296 31.9009,314.963 32.5,311.5C 34.2451,309.967 35.2451,307.967 35.5,305.5C 53.5199,259.44 78.1866,217.44 109.5,179.5C 111.587,178.415 112.92,176.749 113.5,174.5C 113.833,173.5 114.5,172.833 115.5,172.5C 117.587,171.415 118.92,169.749 119.5,167.5C 162.837,115.497 215.17,75.1635 276.5,46.5C 279.721,46.1039 282.388,44.7705 284.5,42.5C 286.412,41.2008 288.412,40.2008 290.5,39.5C 293.491,39.8337 295.824,38.8337 297.5,36.5C 299.5,35.8333 301.5,35.1667 303.5,34.5C 306.947,33.917 309.947,32.5837 312.5,30.5C 314.698,30.1249 316.698,29.4582 318.5,28.5C 322.313,28.0621 325.646,26.7288 328.5,24.5C 329.708,23.7659 331.041,23.4326 332.5,23.5C 335.746,22.9459 338.746,21.9459 341.5,20.5C 345.095,19.3028 348.761,18.3028 352.5,17.5C 357.694,16.1086 363.027,14.942 368.5,14C 369.056,13.6174 369.389,13.1174 369.5,12.5C 372.221,12.0372 374.888,11.3705 377.5,10.5C 382.45,10.2301 387.117,9.23011 391.5,7.5C 396.15,6.74045 400.817,6.07378 405.5,5.5C 415.466,4.13654 425.466,2.96987 435.5,2C 436.056,1.61742 436.389,1.11742 436.5,0.5C 439.713,0.810002 442.713,0.476669 445.5,-0.5 Z"/>

<path style="opacity:1" fill="#fff" d="M 259.5,232.5 C 310.799,231.868 342.965,256.202 356,305.5C 361.468,347.862 345.968,379.695 309.5,401C 268.607,418.648 232.773,411.481 202,379.5C 179.669,349.527 175.669,317.194 190,282.5C 204.941,254.442 228.108,237.775 259.5,232.5 Z"/>
<path style="opacity:1" fill="#fff" d="M 699.5,232.5 C 743.527,231.242 774.361,250.576 792,290.5C 805.53,336.253 792.697,372.42 753.5,399C 724.14,414.218 694.807,414.218 665.5,399C 630.487,375.78 616.654,343.28 624,301.5C 635.021,262.977 660.188,239.977 699.5,232.5 Z"/>


<path style="opacity:1" fill="#fff" d="M 265.5,613.5 C 412.834,613.333 560.167,613.5 707.5,614C 719.625,616.128 724.792,623.295 723,635.5C 720.103,642.397 714.936,646.231 707.5,647C 560.167,647.667 412.833,647.667 265.5,647C 250.442,644.389 245.609,635.889 251,621.5C 254.873,616.729 259.707,614.063 265.5,613.5 Z"/>
</g>
</svg>
