<?xml version="1.0" standalone="no"?>
<svg version="1.0" xmlns="http://www.w3.org/2000/svg"
 width="977.000000pt" height="977.000000pt" viewBox="0 0 977.000000 977.000000"
 preserveAspectRatio="xMidYMid meet">

<g transform="translate(0.000000,977.000000) scale(0.100000,-0.100000)"
fill="#000000" stroke="none">
<path d="M4670 9763 c-348 -16 -729 -75 -1057 -164 -828 -225 -1590 -669
-2192 -1278 -836 -847 -1318 -1903 -1412 -3091 -13 -171 -7 -595 11 -790 129
-1368 815 -2609 1901 -3442 630 -483 1383 -811 2149 -937 326 -53 366 -56 820
-56 454 0 500 3 840 61 708 120 1414 420 2025 858 275 197 671 567 886 828
610 739 972 1568 1101 2523 21 154 23 207 23 575 -1 441 -8 539 -65 875 -216
1268 -945 2414 -2013 3164 -370 261 -832 490 -1284 640 -530 175 -1159 260
-1733 234z m490 -303 c1443 -87 2747 -842 3557 -2060 346 -519 590 -1136 692
-1750 145 -868 55 -1697 -271 -2504 -335 -831 -945 -1576 -1703 -2083 -634
-423 -1349 -677 -2130 -755 -169 -16 -671 -16 -840 0 -393 40 -791 129 -1131
252 -814 298 -1500 791 -2042 1469 -117 145 -317 445 -413 616 -282 506 -468
1074 -544 1666 -39 309 -44 805 -10 1084 174 1446 973 2680 2219 3429 169 102
470 250 659 325 625 245 1291 351 1957 311z"/>
<path d="M2615 7430 c-165 -18 -327 -85 -460 -190 -166 -133 -278 -316 -321
-529 -24 -122 -16 -304 21 -426 70 -239 236 -436 460 -548 148 -74 321 -105
490 -87 121 13 194 33 294 81 233 111 404 309 477 554 35 121 44 304 20 425
-94 460 -516 770 -981 720z"/>
<path d="M7065 7430 c-359 -40 -655 -286 -761 -635 -26 -83 -28 -103 -28 -255
0 -151 2 -172 27 -253 48 -156 128 -288 237 -391 156 -146 323 -224 527 -245
178 -18 336 9 490 84 239 117 407 323 479 584 21 78 29 270 15 359 -22 142
-98 311 -192 430 -62 78 -189 179 -292 233 -137 71 -338 107 -502 89z"/>
<path d="M1895 4487 c-22 -12 -50 -40 -63 -62 -35 -60 -26 -125 46 -340 163
-488 397 -868 757 -1231 168 -169 301 -281 469 -393 445 -298 871 -457 1411
-527 195 -25 570 -23 780 5 430 58 829 194 1193 407 635 373 1115 942 1370
1624 56 148 112 339 112 379 0 78 -85 161 -166 161 -48 0 -121 -35 -146 -70
-9 -14 -35 -83 -56 -155 -225 -750 -724 -1353 -1417 -1711 -290 -150 -555
-236 -895 -289 -164 -26 -531 -31 -710 -11 -545 64 -1025 261 -1455 600 -127
100 -359 332 -455 456 -226 292 -389 606 -491 949 -22 74 -50 148 -61 164 -45
64 -152 85 -223 44z"/>
</g>
</svg>
