<?xml version="1.0" standalone="no"?>
<svg version="1.0" xmlns="http://www.w3.org/2000/svg"
 width="977.000000pt" height="977.000000pt" viewBox="0 0 977.000000 977.000000"
 preserveAspectRatio="xMidYMid meet">

<g transform="translate(0.000000,977.000000) scale(0.100000,-0.100000)"
fill="#000000" stroke="none">
<path d="M4670 9763 c-348 -16 -729 -75 -1057 -164 -828 -225 -1590 -669
-2192 -1278 -836 -847 -1318 -1903 -1412 -3091 -13 -171 -7 -595 11 -790 129
-1368 815 -2609 1901 -3442 630 -483 1383 -811 2149 -937 326 -53 366 -56 820
-56 454 0 500 3 840 61 708 120 1414 420 2025 858 275 197 671 567 886 828
610 739 972 1568 1101 2523 21 154 23 207 23 575 -1 441 -8 539 -65 875 -216
1268 -945 2414 -2013 3164 -370 261 -832 490 -1284 640 -530 175 -1159 260
-1733 234z m490 -303 c1443 -87 2747 -842 3557 -2060 346 -519 590 -1136 692
-1750 145 -868 55 -1697 -271 -2504 -335 -831 -945 -1576 -1703 -2083 -634
-423 -1349 -677 -2130 -755 -169 -16 -671 -16 -840 0 -774 78 -1480 327 -2109
744 -304 202 -584 438 -809 683 -175 191 -178 194 -276 320 -509 653 -829
1425 -936 2256 -39 309 -44 805 -10 1084 174 1446 973 2680 2219 3429 169 102
470 250 659 325 625 245 1291 351 1957 311z"/>
<path d="M2576 7005 c-427 -81 -762 -381 -880 -786 -46 -162 -44 -245 10 -309
37 -43 78 -62 138 -62 57 -1 86 11 129 51 39 36 46 51 63 137 84 443 535 715
952 575 113 -37 196 -87 279 -164 125 -118 196 -251 233 -440 20 -99 90 -160
185 -160 85 0 152 51 176 133 15 50 0 145 -42 272 -81 246 -234 446 -450 588
-103 68 -207 113 -338 147 -123 32 -335 40 -455 18z"/>
<path d="M6959 7005 c-242 -46 -443 -150 -606 -315 -181 -182 -304 -439 -307
-642 -1 -82 0 -88 30 -125 45 -55 84 -75 149 -75 90 -1 166 63 181 152 43 260
188 461 409 570 118 58 190 74 325 74 136 0 208 -16 325 -73 202 -100 344
-278 396 -498 36 -154 72 -202 167 -224 91 -20 189 44 211 137 10 42 8 63 -13
155 -98 427 -397 738 -814 846 -124 31 -337 40 -453 18z"/>
<path d="M2211 4232 c24 -483 226 -994 557 -1412 240 -302 553 -557 895 -731
258 -131 528 -218 829 -266 162 -25 606 -25 763 0 517 85 925 273 1326 608
550 461 918 1162 946 1802 l6 127 -2664 0 -2664 0 6 -128z"/>
</g>
</svg>
