<?xml version="1.0" encoding="UTF-8"?>
<svg version="1.0" xmlns="http://www.w3.org/2000/svg"
 width="977.000000pt" height="977.000000pt" viewBox="0 0 977.000000 977.000000"
 preserveAspectRatio="xMidYMid meet">
<g transform="translate(977.000000, 0.000000) scale(1.00000,-1.00000) rotate(180)"
fill="#000000" stroke="none">
<path  d="M 455.5,1.5 C 480.843,1.33077 506.176,1.6641 531.5,2.5C 535.548,2.39458 539.548,2.72791 543.5,3.5C 548.984,4.5175 554.651,5.18417 560.5,5.5C 563.096,6.26535 565.763,6.59868 568.5,6.5C 568.918,7.22158 569.584,7.72158 570.5,8C 576.177,8.83528 581.844,9.66861 587.5,10.5C 604.18,14.5724 620.846,18.9057 637.5,23.5C 640.053,25.5837 643.053,26.917 646.5,27.5C 649.112,28.3705 651.779,29.0372 654.5,29.5C 656.612,31.7705 659.279,33.1039 662.5,33.5C 665.252,34.5115 667.919,35.5115 670.5,36.5C 672.509,38.0652 674.843,39.0652 677.5,39.5C 680.007,40.8916 682.673,41.8916 685.5,42.5C 687.033,44.2451 689.033,45.2451 691.5,45.5C 806.655,101.113 888.655,188.113 937.5,306.5C 937.427,308.027 938.094,309.027 939.5,309.5C 940.566,311.701 941.233,314.035 941.5,316.5C 941.935,319.157 942.935,321.491 944.5,323.5C 946.279,327.595 947.612,331.928 948.5,336.5C 948.259,338.898 948.926,340.898 950.5,342.5C 955.05,356.575 958.717,370.909 961.5,385.5C 961.952,389.163 962.452,392.83 963,396.5C 963.278,397.416 963.778,398.082 964.5,398.5C 965.341,400.379 965.675,402.379 965.5,404.5C 965.956,410.061 966.956,415.394 968.5,420.5C 969.818,426.383 970.485,432.383 970.5,438.5C 971.486,472.79 971.82,507.123 971.5,541.5C 970.532,543.607 970.198,545.941 970.5,548.5C 968.605,555.255 967.272,562.255 966.5,569.5C 965.809,576.981 964.476,584.314 962.5,591.5C 961.343,594.273 960.676,597.273 960.5,600.5C 958.113,611.933 955.28,623.266 952,634.5C 948.114,646.604 943.947,658.604 939.5,670.5C 938.094,670.973 937.427,671.973 937.5,673.5C 935.783,676.98 934.45,680.647 933.5,684.5C 931.066,687.709 929.399,691.376 928.5,695.5C 924.167,704.167 919.833,712.833 915.5,721.5C 912.742,724.678 910.742,728.345 909.5,732.5C 897.315,752.2 884.481,771.533 871,790.5C 831.234,840.088 784.067,881.421 729.5,914.5C 726.008,915.41 723.008,917.076 720.5,919.5C 713.588,922.429 706.922,925.762 700.5,929.5C 698.973,929.427 697.973,930.094 697.5,931.5C 695.716,931.893 694.05,932.559 692.5,933.5C 689.279,933.896 686.612,935.229 684.5,937.5C 680.468,938.61 676.802,940.277 673.5,942.5C 672.391,942.557 671.391,942.89 670.5,943.5C 666.064,944.414 662.064,946.081 658.5,948.5C 658.167,948.5 657.833,948.5 657.5,948.5C 650.861,950.266 644.527,952.599 638.5,955.5C 638.167,955.5 637.833,955.5 637.5,955.5C 631.467,956.732 625.8,958.732 620.5,961.5C 617.273,961.676 614.273,962.343 611.5,963.5C 608.478,963.804 605.478,964.304 602.5,965C 601.944,965.383 601.611,965.883 601.5,966.5C 599.708,966.366 598.042,966.699 596.5,967.5C 589.16,968.557 581.827,969.723 574.5,971C 573.944,971.383 573.611,971.883 573.5,972.5C 572.833,972.5 572.167,972.5 571.5,972.5C 562.971,973.437 554.638,974.77 546.5,976.5C 504.833,976.5 463.167,976.5 421.5,976.5C 414.339,974.907 407.006,973.574 399.5,972.5C 395.841,970.658 391.841,969.658 387.5,969.5C 380.42,968.417 373.42,967.084 366.5,965.5C 362.112,963.566 357.445,962.233 352.5,961.5C 351.391,961.443 350.391,961.11 349.5,960.5C 347.898,958.926 345.898,958.259 343.5,958.5C 340.574,957.302 337.574,956.302 334.5,955.5C 331.855,953.69 328.855,952.69 325.5,952.5C 312.884,948.076 300.551,943.076 288.5,937.5C 286.967,935.755 284.967,934.755 282.5,934.5C 216.636,904.01 160.302,860.677 113.5,804.5C 112.92,802.251 111.587,800.585 109.5,799.5C 89.5689,773.968 71.9022,746.968 56.5,718.5C 56.573,716.973 55.9063,715.973 54.5,715.5C 51.1499,708.136 47.8166,700.803 44.5,693.5C 44.573,691.973 43.9063,690.973 42.5,690.5C 41.871,687.603 40.871,684.936 39.5,682.5C 38.917,679.053 37.5837,676.053 35.5,673.5C 35.233,671.035 34.5664,668.701 33.5,666.5C 33.1039,663.279 31.7705,660.612 29.5,658.5C 25.6631,646.481 21.8298,634.481 18,622.5C 16.0593,611.946 13.5593,601.613 10.5,591.5C 9.92622,586.817 9.25955,582.15 8.5,577.5C 7.80797,571.823 6.97464,566.156 6,560.5C 5.62325,559.058 4.78991,558.058 3.5,557.5C 2.27391,543.01 0.94058,528.676 -0.5,514.5C -0.5,492.5 -0.5,470.5 -0.5,448.5C 1.13159,438.346 2.46493,428.013 3.5,417.5C 4.82487,418.953 5.6582,418.619 6,416.5C 6.49742,413.854 6.66409,411.187 6.5,408.5C 8.0217,403.727 9.0217,398.727 9.5,393.5C 15.5481,363.07 24.2148,333.403 35.5,304.5C 37.755,302.469 39.0884,299.802 39.5,296.5C 54.6177,259.256 74.6177,224.923 99.5,193.5C 101.587,192.415 102.92,190.749 103.5,188.5C 105.587,187.415 106.92,185.749 107.5,183.5C 147.008,133.634 194.341,93.3002 249.5,62.5C 251.848,62.4077 253.514,61.4077 254.5,59.5C 256.932,58.0418 259.599,56.8751 262.5,56C 264.77,53.5252 267.437,51.5252 270.5,50C 283.627,44.013 296.96,38.513 310.5,33.5C 313.947,32.917 316.947,31.5837 319.5,29.5C 327.575,26.0638 335.908,23.3972 344.5,21.5C 347.746,20.9459 350.746,19.9459 353.5,18.5C 357.325,17.1356 361.325,16.1356 365.5,15.5C 370.19,14.8623 374.856,14.029 379.5,13C 380.056,12.6174 380.389,12.1174 380.5,11.5C 386.416,10.0696 392.416,9.0696 398.5,8.5C 401.187,8.66409 403.854,8.49742 406.5,8C 408.653,7.90054 410.319,7.0672 411.5,5.5C 415.519,5.3542 419.519,5.02087 423.5,4.5C 434.138,3.2163 444.804,2.2163 455.5,1.5 Z"/>
<path style="opacity:1" fill="#fefefe" d="M 258.5,276.5 C 301.907,272.785 337.074,287.785 364,321.5C 375.048,337.469 381.882,355.136 384.5,374.5C 381.599,389.957 372.599,395.124 357.5,390C 354.96,387.795 352.793,385.295 351,382.5C 347.942,366.296 341.609,351.629 332,338.5C 309.541,314.466 282.375,306.966 250.5,316C 221.767,328.623 204.933,350.456 200,381.5C 196.633,388.685 190.967,392.352 183,392.5C 169.114,389.433 163.78,380.767 167,366.5C 176.219,325.296 200.385,297.13 239.5,282C 246.039,280.426 252.372,278.593 258.5,276.5 Z"/>
<path style="opacity:1" fill="#fefffe" d="M 694.5,276.5 C 737.869,272.78 773.036,287.78 800,321.5C 812.513,339.553 818.846,359.553 819,381.5C 812.956,391.602 804.456,394.435 793.5,390C 791.667,388.167 789.833,386.333 788,384.5C 784.364,370.942 779.364,357.942 773,345.5C 751.152,315.772 722.319,305.938 686.5,316C 667.987,322.847 654.153,335.013 645,352.5C 640.563,363.253 636.896,374.253 634,385.5C 627.037,392.027 619.204,393.527 610.5,390C 602.764,383.627 600.264,375.46 603,365.5C 614.947,316.719 645.447,287.053 694.5,276.5 Z"/>
<path style="opacity:1" fill="#fefffe" d="M 220.5,542.5 C 396.5,542.5 572.5,542.5 748.5,542.5C 748.685,576.778 741.519,609.445 727,640.5C 696.398,703.027 649.564,748.86 586.5,778C 491.402,814.181 403.068,802.181 321.5,742C 257.993,690.822 224.326,624.322 220.5,542.5 Z"/>

</g>
</svg>
