<?xml version="1.0" standalone="no"?>
<svg version="1.0" xmlns="http://www.w3.org/2000/svg"
 width="560.000000pt" height="595.000000pt" viewBox="0 0 560.000000 595.000000"
 preserveAspectRatio="xMidYMid meet">

<g transform="translate(0.000000,595.000000) scale(0.100000,-0.100000)"
fill="#000000" stroke="none">
<path d="M5400 5913 c-56 -6 -114 -40 -140 -84 -14 -21 -28 -39 -32 -39 -5 0
-8 -6 -8 -13 0 -7 -16 -30 -35 -52 -20 -22 -43 -52 -52 -67 -10 -16 -21 -28
-25 -28 -4 0 -8 -6 -8 -12 0 -7 -12 -26 -26 -43 -14 -16 -33 -42 -42 -57 -9
-16 -20 -28 -24 -28 -4 0 -8 -6 -8 -13 0 -7 -8 -22 -17 -33 -10 -10 -31 -36
-46 -57 -16 -20 -39 -48 -53 -62 -13 -13 -24 -28 -24 -33 0 -4 -8 -17 -18 -28
-10 -10 -28 -35 -42 -54 -13 -19 -27 -37 -30 -40 -3 -3 -17 -21 -30 -40 -13
-19 -31 -42 -40 -50 -9 -8 -27 -31 -40 -50 -13 -19 -31 -42 -40 -50 -9 -8 -27
-31 -40 -50 -13 -19 -30 -41 -37 -48 -7 -7 -13 -17 -13 -22 0 -5 -10 -19 -23
-32 -12 -13 -33 -39 -47 -58 -13 -19 -27 -37 -30 -40 -3 -3 -17 -21 -30 -40
-13 -19 -31 -42 -40 -50 -19 -18 -80 -106 -80 -116 0 -3 -8 -14 -18 -23 -10
-9 -29 -32 -42 -51 -13 -19 -27 -37 -30 -40 -3 -3 -17 -21 -30 -40 -14 -19
-34 -45 -47 -57 -12 -12 -24 -32 -28 -43 -3 -11 -11 -20 -16 -20 -5 0 -9 -6
-9 -13 0 -7 -16 -30 -35 -52 -19 -22 -35 -43 -35 -46 0 -4 -13 -21 -30 -39
-16 -18 -30 -36 -30 -40 0 -5 -6 -15 -13 -22 -7 -7 -24 -29 -37 -48 -13 -19
-32 -44 -42 -54 -10 -11 -18 -26 -18 -33 0 -7 -4 -13 -8 -13 -4 0 -15 -13 -24
-28 -9 -15 -31 -43 -48 -62 -17 -19 -38 -47 -47 -62 -10 -16 -21 -28 -25 -28
-4 0 -8 -6 -8 -13 0 -7 -8 -22 -18 -33 -42 -46 -62 -78 -62 -100 0 -13 5 -24
11 -24 26 0 158 -71 192 -104 21 -21 44 -35 50 -33 17 5 164 193 479 612 150
198 295 389 323 425 90 113 344 445 555 725 112 149 239 314 282 368 99 124
122 168 122 232 0 105 -72 161 -194 148z"/>
<path d="M3380 3441 c-8 -5 -28 -15 -45 -22 -54 -25 -105 -91 -105 -135 0 -9
59 -43 153 -88 83 -40 192 -96 242 -124 49 -28 93 -48 97 -46 26 16 48 87 48
152 0 60 -4 74 -29 109 -34 47 -63 68 -151 110 -110 52 -172 64 -210 44z"/>
<path d="M2635 3360 c-3 -5 -19 -10 -36 -10 -16 0 -37 -4 -47 -9 -76 -38 -108
-55 -112 -61 -3 -3 -21 -17 -40 -30 -42 -29 -80 -70 -80 -87 0 -14 85 -62 380
-213 277 -143 1293 -650 1301 -650 12 0 29 124 29 208 0 101 -24 171 -82 236
-67 77 -205 164 -343 216 -33 13 -287 139 -335 166 -25 14 -63 36 -85 48 -22
11 -59 36 -83 54 -25 18 -65 42 -91 53 -25 12 -70 32 -99 45 -29 13 -61 24
-72 24 -10 0 -22 5 -25 10 -3 6 -44 10 -90 10 -46 0 -87 -4 -90 -10z"/>
<path d="M2101 2980 c-30 -27 -60 -50 -67 -50 -8 0 -14 -3 -14 -8 0 -4 -18
-18 -40 -32 -22 -14 -40 -28 -40 -32 0 -4 -9 -10 -20 -13 -11 -3 -26 -12 -33
-18 -18 -17 -69 -47 -89 -54 -10 -3 -18 -9 -18 -14 0 -5 -9 -9 -20 -9 -11 0
-20 -4 -20 -10 0 -5 -6 -10 -13 -10 -7 0 -22 -8 -33 -17 -16 -15 -131 -78
-211 -117 -13 -6 -23 -14 -23 -18 0 -5 -9 -8 -20 -8 -11 0 -20 -4 -20 -10 0
-5 -9 -10 -19 -10 -11 0 -21 -3 -23 -7 -4 -11 -128 -73 -144 -73 -8 0 -14 -4
-14 -10 0 -5 -9 -10 -20 -10 -11 0 -20 -4 -20 -10 0 -5 -9 -10 -20 -10 -11 0
-20 -4 -20 -10 0 -5 -6 -10 -13 -10 -13 0 -67 -23 -140 -60 -22 -11 -45 -20
-53 -20 -8 0 -14 -4 -14 -10 0 -5 -7 -10 -15 -10 -8 0 -23 -4 -33 -9 -9 -5
-28 -13 -42 -18 -46 -19 -75 -30 -105 -43 -16 -7 -40 -17 -52 -21 -44 -17 -78
-31 -95 -40 -10 -5 -27 -9 -37 -9 -11 0 -22 -4 -25 -9 -3 -5 -23 -12 -43 -15
-91 -16 -103 -19 -109 -27 -3 -5 -23 -9 -44 -9 -21 0 -42 -4 -45 -10 -3 -5
-28 -10 -54 -10 -55 0 -101 -18 -101 -41 0 -32 406 -467 465 -499 28 -15 53 0
245 144 74 56 158 117 185 136 58 39 489 397 615 510 47 42 150 130 230 195
158 130 392 340 428 385 l22 28 -57 41 c-32 23 -67 41 -78 41 -11 0 -44 -22
-74 -50z"/>
<path d="M2325 2784 c-55 -59 -142 -148 -194 -198 -52 -50 -117 -114 -145
-141 -28 -28 -67 -61 -86 -75 -19 -13 -37 -27 -40 -30 -3 -3 -27 -23 -54 -44
-26 -22 -58 -49 -70 -60 -12 -12 -55 -50 -96 -86 -41 -36 -95 -85 -120 -110
-25 -25 -62 -58 -84 -74 -21 -16 -62 -52 -90 -80 -28 -28 -67 -62 -86 -76 -19
-13 -42 -31 -50 -40 -8 -9 -31 -27 -50 -40 -19 -13 -42 -32 -51 -42 -9 -10
-21 -18 -26 -18 -5 0 -31 -20 -57 -44 -26 -25 -56 -48 -67 -51 -10 -4 -19 -9
-19 -13 0 -4 -18 -18 -40 -32 -22 -14 -40 -28 -40 -32 0 -5 -6 -8 -14 -8 -8 0
-31 -17 -51 -37 l-37 -37 29 -26 c102 -89 258 -217 290 -238 21 -14 59 -43 84
-64 26 -21 51 -38 55 -38 5 1 36 40 69 87 197 285 737 969 1020 1293 55 63
123 142 150 175 28 33 76 88 108 123 62 69 68 82 37 82 -11 0 -20 5 -20 10 0
6 -9 10 -20 10 -11 0 -20 4 -20 8 0 11 -78 52 -98 52 -10 0 -62 -48 -117 -106z"/>
<path d="M2715 2717 c-6 -7 -30 -37 -55 -67 -25 -30 -47 -57 -50 -60 -3 -3
-17 -21 -30 -40 -14 -19 -35 -46 -48 -60 -13 -14 -31 -37 -40 -52 -9 -16 -20
-28 -24 -28 -4 0 -8 -6 -8 -13 0 -8 -21 -36 -46 -63 -26 -27 -59 -65 -73 -84
-14 -19 -41 -51 -58 -70 -18 -19 -33 -38 -33 -41 0 -4 -16 -24 -35 -45 -19
-21 -35 -44 -35 -51 0 -7 -4 -13 -8 -13 -4 0 -16 -14 -26 -30 -9 -17 -27 -41
-39 -53 -12 -12 -38 -42 -57 -67 -19 -25 -37 -47 -40 -50 -3 -3 -17 -21 -31
-40 -15 -19 -39 -48 -53 -65 -14 -16 -26 -34 -26 -38 0 -4 -11 -19 -25 -33
-14 -14 -25 -29 -25 -33 0 -5 -13 -23 -30 -41 -16 -18 -30 -36 -30 -40 0 -5
-6 -15 -13 -22 -7 -7 -24 -29 -37 -48 -13 -19 -32 -42 -42 -51 -10 -9 -18 -21
-18 -26 0 -5 -8 -18 -18 -29 -10 -10 -29 -35 -42 -54 -13 -19 -32 -44 -42 -54
-10 -11 -18 -23 -18 -28 0 -4 -13 -22 -30 -40 -16 -17 -30 -37 -30 -44 0 -8
-4 -14 -8 -14 -4 0 -16 -13 -25 -30 -10 -16 -24 -36 -32 -43 -27 -28 -56 -89
-50 -108 7 -22 46 -50 195 -139 160 -97 323 -181 332 -172 5 5 47 103 94 218
103 252 148 362 180 432 50 109 165 349 205 427 23 44 57 109 75 145 19 36 74
135 123 220 50 85 107 184 127 220 21 36 76 123 123 193 89 134 92 145 46 171
-10 6 -39 23 -64 39 -47 29 -89 34 -106 14z"/>
<path d="M3026 2565 c-8 -8 -27 -41 -42 -72 -16 -32 -31 -60 -34 -63 -9 -8
-40 -63 -58 -102 -9 -21 -20 -38 -24 -38 -5 0 -8 -9 -8 -20 0 -11 -3 -20 -7
-20 -5 0 -13 -10 -19 -23 -30 -60 -79 -153 -84 -157 -9 -9 -39 -64 -77 -140
-20 -41 -40 -77 -43 -80 -11 -9 -170 -335 -170 -347 0 -7 -4 -13 -10 -13 -5 0
-10 -9 -10 -20 0 -11 -4 -20 -10 -20 -5 0 -10 -7 -10 -15 0 -8 -9 -30 -20 -50
-11 -20 -20 -44 -20 -55 0 -11 -4 -20 -10 -20 -5 0 -10 -7 -10 -15 0 -8 -4
-24 -10 -35 -5 -11 -14 -29 -20 -40 -5 -11 -10 -27 -10 -35 0 -8 -4 -15 -10
-15 -5 0 -10 -9 -10 -20 0 -11 -4 -28 -9 -38 -5 -9 -16 -34 -25 -54 -9 -21
-23 -55 -32 -75 -9 -21 -20 -46 -25 -55 -5 -10 -9 -27 -9 -37 0 -11 -4 -23
-10 -26 -5 -3 -10 -15 -10 -26 0 -19 -4 -28 -28 -76 -7 -13 -12 -30 -12 -38 0
-8 -5 -25 -12 -38 -24 -48 -28 -57 -28 -77 0 -11 -5 -20 -11 -20 -6 0 -9 -12
-7 -27 3 -24 15 -33 103 -71 135 -60 485 -190 485 -181 0 2 11 81 25 174 14
94 34 233 45 310 62 447 235 1056 447 1573 53 130 58 114 -59 176 -75 41 -81
42 -102 21z"/>
<path d="M3347 2423 c-32 -53 -47 -88 -47 -108 0 -13 -4 -27 -10 -30 -5 -3
-10 -17 -10 -31 0 -13 -5 -34 -12 -47 -24 -48 -28 -57 -28 -76 0 -11 -4 -23
-10 -26 -5 -3 -10 -19 -10 -35 0 -16 -4 -32 -10 -35 -5 -3 -10 -17 -10 -30 0
-13 -4 -27 -10 -30 -5 -3 -10 -17 -10 -30 0 -13 -4 -27 -10 -30 -5 -3 -10 -17
-10 -30 0 -13 -4 -27 -10 -30 -5 -3 -10 -17 -10 -30 0 -13 -4 -27 -10 -30 -5
-3 -10 -19 -10 -36 0 -16 -4 -29 -10 -29 -5 0 -10 -11 -10 -24 0 -14 -4 -28
-10 -31 -5 -3 -10 -21 -10 -40 0 -19 -4 -37 -10 -40 -5 -3 -10 -24 -10 -45 0
-21 -4 -42 -10 -45 -5 -3 -10 -17 -10 -30 0 -13 -4 -27 -10 -30 -5 -3 -10 -24
-10 -45 0 -21 -4 -42 -10 -45 -5 -3 -10 -28 -10 -55 0 -27 -4 -52 -10 -55 -5
-3 -10 -21 -10 -40 0 -19 -4 -37 -10 -40 -5 -3 -10 -21 -10 -39 0 -17 -4 -36
-9 -41 -9 -10 -16 -50 -31 -200 -16 -155 -21 -189 -30 -210 -5 -11 -12 -42
-15 -70 -3 -27 -10 -88 -16 -135 -5 -47 -11 -116 -12 -155 l-2 -70 70 -21 c92
-29 556 -136 561 -131 3 3 -7 107 -21 232 -66 582 -57 1116 25 1585 10 58 30
172 45 254 14 81 24 154 22 160 -4 11 -177 106 -191 106 -3 0 -7 -3 -9 -7z"/>
<path d="M3678 2241 c-21 -25 -36 -120 -54 -341 -2 -36 -9 -74 -14 -85 -9 -21
-15 -69 -31 -260 -34 -414 -24 -975 21 -1195 6 -30 14 -77 17 -105 2 -27 9
-54 14 -59 5 -6 9 -33 9 -62 0 -29 5 -56 13 -62 42 -35 749 -43 783 -9 4 4 -2
17 -13 30 -36 39 -153 254 -208 381 -114 264 -187 554 -232 913 -17 144 -25
660 -10 714 6 24 3 29 -31 44 -20 9 -59 29 -87 43 -165 85 -153 81 -177 53z"/>
</g>
</svg>
