<?xml version="1.0" standalone="no"?>
<!DOCTYPE svg PUBLIC "-//W3C//DTD SVG 20010904//EN"
 "http://www.w3.org/TR/2001/REC-SVG-20010904/DTD/svg10.dtd">
<svg version="1.0" xmlns="http://www.w3.org/2000/svg"
 width="300.000000pt" height="356.000000pt" viewBox="0 0 300.000000 356.000000"
 preserveAspectRatio="xMidYMid meet">
<metadata>
Created by potrace 1.10, written by Peter Selinger 2001-2011
</metadata>
<g transform="translate(0.000000,356.000000) scale(0.100000,-0.100000)"
fill="#3a4758" stroke="none">
<path d="M881 3526 c-24 -18 -48 -40 -53 -49 -11 -21 -27 -21 -50 0 -17 15
-19 15 -32 -2 -12 -17 -17 -18 -40 -7 -15 7 -34 12 -42 12 -9 0 -31 7 -50 16
-42 20 -64 7 -64 -40 0 -17 -7 -41 -15 -53 -11 -16 -14 -34 -9 -62 6 -39 6
-40 -27 -45 -19 -3 -52 -7 -74 -8 -37 -3 -41 -6 -49 -41 -12 -48 -4 -56 65
-63 37 -4 59 -11 72 -26 26 -31 21 -45 -20 -53 -48 -9 -73 -22 -73 -38 0 -25
-40 -57 -71 -57 -55 0 -111 -43 -93 -72 6 -9 45 -8 84 3 15 4 16 -2 8 -86 -3
-28 -1 -30 39 -36 24 -3 44 -7 46 -10 2 -2 15 -19 30 -37 32 -40 38 -114 11
-143 -15 -17 -15 -19 12 -30 115 -44 106 -67 -49 -133 -43 -18 -41 -41 3 -32
22 4 32 0 44 -19 18 -27 45 -32 76 -13 16 10 24 10 40 0 33 -20 58 -14 75 18
17 33 41 39 59 14 7 -9 28 -19 46 -23 26 -5 35 -12 35 -26 0 -15 8 -21 29 -23
28 -3 29 -2 23 30 -3 18 -9 43 -12 54 -5 17 1 26 28 43 43 27 45 26 57 -4 13
-34 50 -34 50 0 0 13 13 39 30 58 29 34 50 76 50 103 0 10 -12 14 -40 14 -34
0 -40 3 -40 21 0 40 22 108 41 125 10 9 19 22 19 29 0 6 11 22 25 35 19 18 25
34 25 65 0 56 28 110 74 141 36 25 38 28 36 77 -3 75 -3 77 25 77 32 0 32 7
-2 34 -18 13 -42 21 -67 21 -37 0 -40 2 -47 33 -4 18 -10 36 -13 39 -10 11
-65 -49 -78 -84 -14 -38 -41 -41 -46 -5 -5 32 -25 37 -62 15 l-32 -18 -24 28
c-31 36 -41 76 -23 88 8 5 32 9 54 9 38 0 41 2 53 40 17 54 15 84 -5 109 l-18
21 -44 -34z"/>
<path d="M1245 3219 c-29 -8 -30 -10 -27 -61 3 -59 1 -62 -50 -100 -33 -25
-37 -35 -49 -100 -10 -60 -19 -81 -51 -120 -40 -49 -58 -92 -58 -141 0 -23 4
-28 23 -27 41 4 47 0 47 -26 0 -23 3 -25 28 -19 54 11 129 -40 107 -74 -3 -5
6 -11 21 -13 l26 -3 -26 -28 c-45 -49 -26 -81 46 -75 40 3 44 1 63 -35 11 -20
28 -40 38 -43 21 -7 22 -32 1 -55 -14 -16 -14 -18 4 -28 11 -6 22 -24 26 -42
l6 -31 52 7 c34 5 62 15 78 30 14 13 44 26 68 30 23 4 55 18 71 31 22 18 31
20 40 11 9 -9 16 -7 29 10 20 25 67 40 76 24 15 -24 55 -12 72 22 9 17 25 42
36 53 16 18 18 30 12 73 -3 28 -13 56 -20 62 -8 6 -14 24 -14 39 0 17 -7 30
-16 34 -13 5 -15 15 -10 47 11 68 -9 114 -80 187 -35 37 -64 72 -64 79 0 7 14
28 30 46 33 39 36 53 15 81 -8 11 -15 32 -15 48 0 32 -22 37 -57 13 -16 -11
-23 -28 -25 -63 -3 -42 -6 -47 -28 -50 -15 -2 -39 7 -59 22 l-34 25 -27 -29
c-16 -17 -34 -30 -42 -30 -43 0 -189 136 -208 196 -6 18 -15 34 -18 33 -4 0
-20 -5 -37 -10z"/>
<path d="M1107 2612 c-18 -2 -32 -13 -42 -32 -8 -16 -22 -33 -31 -38 -8 -5
-21 -26 -29 -48 -15 -46 -47 -57 -67 -25 -15 25 -35 27 -58 6 -14 -13 -16 -22
-7 -60 11 -47 -2 -79 -28 -69 -7 3 -16 1 -20 -5 -3 -6 -17 -8 -29 -5 -47 11
-74 -66 -36 -99 30 -25 25 -62 -10 -89 -17 -12 -28 -28 -25 -36 9 -23 -57
-122 -82 -122 -8 0 -13 -15 -13 -40 0 -28 -7 -46 -24 -63 -28 -28 -25 -59 7
-82 44 -31 87 -9 115 58 13 30 29 35 46 12 10 -13 16 -12 49 12 l37 26 28 -26
c16 -15 35 -27 44 -27 11 0 15 -10 14 -37 l-1 -38 55 0 54 0 14 -48 c12 -43
12 -51 -2 -66 -20 -22 -20 -55 0 -75 23 -24 34 -19 34 13 0 48 9 61 45 61 18
0 43 8 55 18 l23 19 -23 31 c-20 27 -22 39 -17 94 4 44 11 66 22 73 59 35 63
42 52 91 -10 44 -10 47 16 66 15 11 27 29 27 41 0 12 5 39 11 60 9 35 12 37
49 37 35 0 40 3 40 23 0 13 -9 32 -20 42 -17 16 -18 19 -4 40 14 21 13 25 -8
48 -13 13 -31 36 -41 50 -14 22 -22 25 -40 18 -15 -6 -34 -4 -55 5 -39 16 -42
47 -10 81 l21 23 -22 0 c-18 0 -22 4 -18 20 9 35 -42 69 -96 62z"/>
<path d="M280 2461 c-16 -31 -12 -56 15 -81 33 -31 32 -47 -4 -55 -30 -6 -47
-22 -66 -58 -7 -15 -29 -25 -88 -37 -104 -22 -110 -29 -96 -110 6 -36 11 -95
10 -131 -1 -53 3 -72 21 -99 34 -49 46 -48 50 2 3 48 31 66 43 28 12 -39 7
-121 -10 -146 -9 -14 -20 -50 -26 -82 -6 -31 -16 -75 -23 -97 -26 -79 -28 -95
-11 -95 9 0 29 7 45 15 22 12 34 13 47 4 31 -19 71 4 75 43 2 25 8 34 26 36
14 2 22 10 22 23 0 25 17 59 30 59 6 0 10 -17 10 -38 0 -21 5 -43 12 -50 15
-15 53 -15 81 0 12 6 62 15 111 19 48 5 95 14 103 20 8 7 31 15 51 19 l37 6
-3 49 c-1 28 -5 65 -8 83 l-5 33 -26 -21 c-44 -35 -105 -19 -123 33 -15 45
-13 57 15 67 23 9 25 13 19 49 -5 34 -3 41 17 51 41 22 78 72 79 108 0 22 6
35 18 39 21 8 41 33 42 52 0 8 -11 27 -25 41 -23 24 -24 30 -15 56 16 41 40
65 60 59 12 -4 16 0 15 17 -1 15 -10 24 -29 29 -16 5 -37 15 -47 25 -21 19
-43 8 -54 -27 -7 -22 -54 -26 -73 -7 -9 9 -18 9 -37 0 -39 -18 -73 -15 -85 8
-7 13 -21 20 -40 20 -16 0 -32 5 -35 10 -3 6 -14 10 -23 10 -9 0 -28 9 -42 20
-32 25 -47 25 -60 1z"/>
<path d="M1942 2398 c-11 -13 -25 -35 -31 -50 -8 -22 -17 -28 -39 -28 -15 0
-33 5 -39 11 -15 15 -61 0 -68 -22 -7 -21 -30 -25 -41 -8 -4 7 -16 2 -33 -14
-16 -16 -44 -28 -74 -32 -61 -9 -71 -25 -15 -25 54 0 77 -15 117 -78 53 -84
41 -163 -38 -250 -30 -33 -46 -42 -68 -41 -15 2 -38 -1 -50 -5 -27 -9 -66 -60
-82 -108 -7 -21 -18 -38 -24 -39 -7 -1 -21 -2 -32 -3 -11 -1 -37 -3 -58 -4
-36 -2 -54 -14 -93 -64 -6 -8 -14 -31 -18 -52 -5 -26 -14 -40 -27 -43 -14 -4
-19 -12 -16 -24 3 -11 -7 -34 -24 -55 -16 -20 -29 -47 -29 -60 0 -48 138 -107
169 -73 7 8 25 37 39 64 23 43 32 50 61 53 58 6 78 -4 85 -42 6 -29 13 -37 44
-47 47 -17 272 -12 315 6 28 12 31 17 31 63 1 80 31 92 71 29 23 -37 56 -45
90 -23 31 20 46 20 83 -1 29 -16 30 -16 78 15 40 27 50 40 61 80 16 62 16 60
-9 64 -15 2 -28 15 -37 35 -10 22 -23 34 -42 38 -15 4 -40 16 -55 27 -26 21
-26 22 -20 118 6 74 4 105 -8 136 -8 21 -16 72 -19 112 -2 40 -10 79 -16 85
-6 6 -32 14 -59 17 -45 5 -47 6 -50 40 -2 28 5 46 38 90 25 34 38 60 34 70 -4
8 -9 25 -11 38 -4 17 -12 22 -37 22 -21 0 -40 -8 -54 -22z"/>
<path d="M1536 2208 c-9 -5 -60 -12 -112 -15 l-94 -6 -10 -36 c-5 -20 -10 -44
-10 -54 0 -10 -12 -28 -26 -40 -25 -22 -25 -25 -14 -67 11 -41 10 -46 -9 -60
-63 -44 -62 -42 -64 -111 -2 -53 2 -71 17 -88 17 -19 17 -22 3 -44 -12 -18
-13 -27 -4 -36 19 -19 45 -12 67 18 24 34 43 42 125 50 57 6 60 7 66 37 14 69
80 124 149 124 52 0 120 100 120 175 0 38 -35 109 -70 140 -23 21 -106 29
-134 13z"/>
<path d="M818 1868 c-26 -21 -28 -21 -47 -4 -17 16 -20 16 -28 1 -6 -9 -5 -37
2 -71 6 -30 11 -76 10 -102 0 -46 -1 -47 -34 -50 -43 -4 -81 -29 -81 -53 0
-24 35 -33 108 -26 39 3 66 0 86 -10 19 -10 43 -13 70 -9 l41 6 -28 -25 c-15
-14 -35 -25 -43 -25 -27 0 -9 -25 25 -35 33 -10 33 -10 27 -60 -3 -27 -6 -72
-6 -98 0 -40 -3 -50 -20 -54 -16 -4 -20 -14 -20 -46 0 -22 -6 -48 -14 -56 -21
-23 0 -115 23 -104 26 12 88 8 106 -7 30 -25 45 -76 32 -109 -8 -22 -8 -36 1
-55 16 -35 26 -33 41 12 32 87 30 85 46 72 8 -7 17 -27 21 -46 3 -19 10 -34
15 -34 4 0 21 16 36 35 20 25 33 33 46 29 11 -3 27 2 38 12 14 12 42 19 99 22
70 4 80 7 86 26 3 11 12 28 19 36 22 25 21 54 -3 84 -12 16 -22 37 -22 47 0
12 -13 24 -35 33 -28 12 -35 20 -35 44 0 51 -21 67 -88 67 -52 0 -65 4 -99 31
-49 40 -56 83 -19 115 18 16 26 33 26 56 0 26 4 33 19 33 11 0 21 9 25 23 9
34 7 47 -7 47 -8 0 -22 9 -32 20 -22 25 -80 27 -89 4 -3 -9 -6 -29 -6 -44 0
-39 -12 -44 -44 -19 -29 23 -34 62 -12 91 10 13 10 28 2 63 -11 49 -14 50 -66
35 -31 -9 -37 -8 -52 11 -10 12 -16 30 -13 43 4 16 -3 26 -30 44 -42 27 -43
27 -77 0z"/>
<path d="M328 1648 c-4 -10 -5 -25 -2 -33 5 -11 -3 -17 -25 -21 -27 -6 -31
-11 -31 -39 0 -27 -5 -35 -31 -45 -23 -10 -36 -10 -48 -3 -13 8 -24 7 -42 -3
-13 -7 -32 -13 -41 -14 -31 0 -19 -16 20 -28 100 -30 94 -71 -20 -128 -115
-57 -115 -58 -67 -115 22 -27 45 -64 50 -83 7 -27 16 -35 41 -40 54 -11 78
-32 78 -70 0 -38 -19 -58 -74 -81 -36 -15 -37 -17 -22 -39 13 -20 13 -26 1
-43 -18 -26 -11 -33 32 -33 41 0 102 -39 127 -80 16 -28 21 -30 49 -24 18 3
52 17 76 30 32 17 49 20 62 14 38 -21 77 -12 105 25 14 19 31 35 36 35 9 0 88
-63 141 -112 36 -35 46 -35 80 2 21 22 38 30 63 30 24 0 41 7 57 26 12 14 35
32 50 40 26 14 27 17 21 64 -4 31 -2 55 4 63 8 9 6 24 -8 54 -22 50 -61 63
-110 38 -18 -9 -33 -15 -34 -13 -2 2 -8 30 -15 62 -12 52 -11 61 2 71 10 7 17
31 19 61 2 40 6 48 21 46 15 -2 17 6 17 61 0 36 3 79 6 96 6 26 4 31 -13 31
-11 0 -28 9 -39 21 -18 20 -18 21 1 35 10 8 26 15 34 15 37 3 -81 22 -151 24
-91 3 -106 7 -117 37 -8 21 -13 23 -76 20 -37 -2 -86 -12 -108 -22 -35 -16
-45 -17 -71 -6 -26 10 -32 19 -36 52 -4 28 -7 34 -12 22z"/>
<path d="M2433 1549 c-13 -13 -35 -22 -55 -23 -32 -1 -33 -2 -30 -38 4 -41 -9
-49 -38 -23 -16 14 -22 12 -71 -20 -34 -23 -62 -34 -76 -32 -13 2 -23 -1 -23
-7 0 -27 -29 -50 -71 -55 -43 -6 -44 -7 -41 -43 4 -48 -23 -123 -64 -180 -27
-38 -32 -54 -28 -78 4 -17 11 -33 15 -36 20 -12 8 -44 -21 -59 l-31 -16 21
-29 c27 -38 49 -50 97 -51 21 0 61 -8 88 -17 44 -15 50 -21 53 -48 2 -19 -3
-36 -12 -44 -22 -18 -20 -36 6 -54 30 -21 168 -21 223 0 22 9 68 21 103 27 58
10 68 16 118 65 l55 55 35 -16 c78 -38 97 -18 93 95 l-4 83 33 3 c17 2 32 4
32 5 0 1 -8 25 -18 52 -26 72 -24 81 21 77 37 -4 37 -3 30 28 -7 35 6 50 44
50 32 0 67 71 59 118 -6 41 -60 102 -90 102 -11 0 -39 -18 -62 -41 -29 -28
-50 -41 -71 -41 -39 -1 -106 39 -99 59 6 14 -40 93 -54 93 -4 0 -24 14 -45 30
-46 36 -91 39 -122 9z"/>
<path d="M1920 1470 c-6 -11 -10 -37 -8 -57 3 -34 0 -39 -32 -54 -25 -11 -73
-18 -162 -21 -154 -6 -201 8 -216 64 -8 31 -11 33 -55 36 l-47 3 -25 -52 c-24
-52 -24 -53 -4 -80 10 -15 19 -41 19 -57 0 -25 5 -31 29 -37 33 -7 56 -29 47
-44 -11 -17 16 -50 60 -76 31 -18 43 -33 53 -66 12 -38 11 -44 -5 -56 -10 -7
-30 -13 -46 -13 -44 0 -33 -17 25 -36 37 -12 70 -35 115 -78 62 -59 63 -61 61
-108 -2 -26 0 -50 3 -53 3 -4 24 -1 47 5 31 8 47 20 66 50 19 30 37 43 76 57
57 20 81 48 50 58 -22 7 -81 70 -81 86 0 5 14 15 31 21 22 7 29 15 25 27 -31
95 -31 94 7 144 48 63 74 143 59 186 -9 27 -8 32 8 41 10 5 31 10 47 10 37 0
48 9 57 43 8 32 -6 35 -58 11 -44 -22 -81 -12 -101 26 -20 39 -32 44 -45 20z"/>
<path d="M1483 1030 l-29 -61 -77 -3 c-57 -3 -84 -9 -98 -22 -19 -17 -18 -18
18 -42 57 -37 101 -82 107 -108 8 -32 -28 -102 -59 -114 -15 -6 -25 -17 -25
-29 0 -12 -12 -27 -29 -35 -31 -16 -49 -62 -32 -79 15 -15 13 -62 -4 -104 -8
-19 -15 -55 -15 -78 0 -32 -7 -51 -30 -80 -25 -32 -30 -47 -30 -92 l0 -55 33
7 c17 4 42 9 55 12 18 4 22 1 22 -20 0 -14 -4 -29 -10 -32 -22 -14 -8 -24 37
-27 44 -3 47 -5 55 -35 7 -26 14 -33 34 -33 28 0 84 26 84 39 0 5 13 14 30 21
42 17 49 30 54 89 5 51 27 101 46 101 5 0 15 -12 22 -27 21 -44 52 -41 83 7
23 37 30 41 55 37 18 -4 32 -1 40 8 9 11 4 21 -24 47 -19 18 -36 42 -38 53 -3
17 3 20 47 20 44 0 50 3 53 23 4 29 36 49 92 58 25 4 63 20 85 36 22 16 56 39
75 51 29 19 35 29 36 58 0 19 4 40 8 47 3 6 -2 16 -14 22 -24 13 -26 37 -5 76
19 38 19 52 -2 57 -122 32 -112 32 -141 4 -15 -15 -45 -33 -67 -40 -27 -9 -49
-27 -68 -55 -21 -31 -38 -44 -68 -52 -66 -18 -75 -12 -71 49 4 52 3 53 -53
107 -49 48 -79 66 -168 97 -14 5 -16 11 -7 27 7 14 21 20 45 20 18 0 36 4 39
9 9 14 -22 79 -43 91 -17 9 -23 3 -48 -50z"/>
<path d="M1085 890 c-9 -27 -21 -50 -26 -50 -15 0 -93 -53 -112 -77 -13 -16
-29 -23 -54 -23 -26 0 -42 -8 -63 -30 -15 -16 -35 -30 -43 -30 -11 0 -17 -18
-22 -71 -7 -69 -7 -71 23 -102 17 -18 40 -54 52 -82 35 -81 65 -115 104 -115
19 0 39 -7 46 -15 12 -14 16 -13 40 10 50 48 107 25 97 -40 -6 -35 4 -44 29
-27 26 17 64 87 64 118 0 18 9 57 21 86 20 50 20 55 4 84 -15 29 -15 34 -1 62
9 17 25 33 36 37 14 4 20 15 20 36 0 24 4 29 24 29 17 0 31 10 45 34 40 64 26
92 -86 170 -29 20 -56 36 -59 36 -4 0 -23 -18 -41 -40 -19 -22 -38 -38 -43
-35 -4 3 -11 20 -14 40 -10 52 -23 51 -41 -5z"/>
</g>
</svg>
